# xmcd
#
# Track frame offsets: 
#        150
#        16384
#        29051
#        50360
#        62378
#        77675
#        89863
#        101009
#        117002
#        134390
#        145611
#        158954
#        169553
#        182223
#        208591
#        220104
#        231464
#        248112
#
# Disc length: 3497 seconds
#
# Revision: 2
# Processed by: cddbd v1.5.2PL0 Copyright (c) Steve Scherf et al.
# Submitted via: ExactAudioCopy v1.0b3
#
DISCID=fb0da712
DTITLE=Various Artist - The Big Easy CD1
DYEAR=1900
DGENRE=
TTITLE0=Ella Fitzgerald - Every Time We Say Goodbye
TTITLE1=Judy Garland - Over The Rainbow
TTITLE2=Eva Cassidy - Fields Of Gold
TTITLE3=Billy Eckstine and Sarah Vaughan - Passing Strangers
TTITLE4=Tom Jones - Delilah
TTITLE5=Pat Boone - April Love
TTITLE6=Roger Miller - King Of The Road
TTITLE7=Michael Ball - Love Changes Everything
TTITLE8=Scott Walker - Joanna
TTITLE9=Brook Benton - It's Just A Matter Of Time
TTITLE10=Jack Jones - My Kind Of Town
TTITLE11=Connie Francis - Who's Sorry Now
TTITLE12=The Kaye Sisters - Paper Roses
TTITLE13=Stan Getz and João Gilberto - Desafinado
TTITLE14=Paul and Paula - Hey Paula
TTITLE15=Julie Rogers - The Wedding
TTITLE16=Howard Keel - Send In The Clowns
TTITLE17=Andy Williams - Moon River
EXTD=
EXTT0=
EXTT1=
EXTT2=
EXTT3=
EXTT4=
EXTT5=
EXTT6=
EXTT7=
EXTT8=
EXTT9=
EXTT10=
EXTT11=
EXTT12=
EXTT13=
EXTT14=
EXTT15=
EXTT16=
EXTT17=
PLAYORDER=
